HIERARCHY
ROOT Bip001_Pelvis
{
  OFFSET 7.937 94.8971 -8.5489
  CHANNELS 6 Xposition Yposition Zposition Zrotation Xrotation Yrotation
  JOINT Bip001_Spine
  {
    OFFSET 1.44608e-005 10.4157 -0.0118244
    CHANNELS 3 Zrotation Xrotation Yrotation
    JOINT Bip001_L_Thigh
    {
      OFFSET 11.2582 -10.4157 0.0118432
      CHANNELS 3 Zrotation Xrotation Yrotation
      JOINT Bip001_L_Calf
      {
        OFFSET -0.720717 -44.8687 0.366937
        CHANNELS 3 Zrotation Xrotation Yrotation
        JOINT Bip001_L_Foot
        {
          OFFSET -0.664439 -41.3745 -3.62995
          CHANNELS 3 Zrotation Xrotation Yrotation
          JOINT Bip001_L_Toe0
          {
            OFFSET 0.0541047 -10.4146 13.4033
            CHANNELS 3 Zrotation Xrotation Yrotation
            End Site
            {
              OFFSET -1.04503e-005 0 7.70137
            }
          }
        }
      }
    }
    JOINT Bip001_R_Thigh
    {
      OFFSET -11.2582 -10.4156 0.0118122
      CHANNELS 3 Zrotation Xrotation Yrotation
      JOINT Bip001_R_Calf
      {
        OFFSET 0.72059 -44.8687 0.36676
        CHANNELS 3 Zrotation Xrotation Yrotation
        JOINT Bip001_R_Foot
        {
          OFFSET 0.664321 -41.3745 -3.62979
          CHANNELS 3 Zrotation Xrotation Yrotation
          JOINT Bip001_R_Toe0
          {
            OFFSET -0.05417 -10.4146 13.4033
            CHANNELS 3 Zrotation Xrotation Yrotation
            End Site
            {
              OFFSET -1.04873e-005 0 7.70137
            }
          }
        }
      }
    }
    JOINT Bip001_Spine1
    {
      OFFSET 1.90638e-005 14.8539 1.10727
      CHANNELS 3 Zrotation Xrotation Yrotation
      JOINT Bip001_Spine2
      {
        OFFSET 2.28934e-005 14.7848 -1.7233
        CHANNELS 3 Zrotation Xrotation Yrotation
        JOINT Bip001_Neck
        {
          OFFSET 2.24514e-005 15.6905 -0.498826
          CHANNELS 3 Zrotation Xrotation Yrotation
          JOINT Bip001_L_Clavicle
          {
            OFFSET 6.17691 -0.000591152 0.00852867
            CHANNELS 3 Zrotation Xrotation Yrotation
            JOINT Bip001_L_UpperArm
            {
              OFFSET 11.773 -0.0611878 0.00197697
              CHANNELS 3 Zrotation Xrotation Yrotation
              JOINT Bip001_L_Forearm
              {
                OFFSET 26.4515 0.0817568 -2.19579
                CHANNELS 3 Zrotation Xrotation Yrotation
                JOINT Bip001_L_Hand
                {
                  OFFSET 32.8677 0.156744 1.67112
                  CHANNELS 3 Zrotation Xrotation Yrotation
                  JOINT Bip001_L_Finger0
                  {
                    OFFSET 6.16268 -2.25226 6.01674
                    CHANNELS 3 Zrotation Xrotation Yrotation
                    End Site
                    {
                      OFFSET 4.30499 -1.46662 0.618148
                    }
                  }
                  JOINT Bip001_L_Finger1
                  {
                    OFFSET 11.2957 -0.718374 -0.201963
                    CHANNELS 3 Zrotation Xrotation Yrotation
                    End Site
                    {
                      OFFSET 6.31952 -0.405163 -0.0802303
                    }
                  }
                }
              }
            }
          }
          JOINT Bip001_R_Clavicle
          {
            OFFSET -6.17691 -0.000574027 0.00851165
            CHANNELS 3 Zrotation Xrotation Yrotation
            JOINT Bip001_R_UpperArm
            {
              OFFSET -11.773 -0.0611516 0.00194365
              CHANNELS 3 Zrotation Xrotation Yrotation
              JOINT Bip001_R_Forearm
              {
                OFFSET -26.4514 0.0822334 -2.19736
                CHANNELS 3 Zrotation Xrotation Yrotation
                JOINT Bip001_R_Hand
                {
                  OFFSET -32.8677 0.156817 1.67144
                  CHANNELS 3 Zrotation Xrotation Yrotation
                  JOINT Bip001_R_Finger0
                  {
                    OFFSET -6.1627 -2.25224 6.0167
                    CHANNELS 3 Zrotation Xrotation Yrotation
                    End Site
                    {
                      OFFSET -4.30499 -1.46662 0.618134
                    }
                  }
                  JOINT Bip001_R_Finger1
                  {
                    OFFSET -11.2958 -0.718344 -0.201994
                    CHANNELS 3 Zrotation Xrotation Yrotation
                    End Site
                    {
                      OFFSET -6.31952 -0.405146 -0.0802475
                    }
                  }
                }
              }
            }
          }
          JOINT Bip001_Head
          {
            OFFSET 1.11782e-005 11.4912 2.09908
            CHANNELS 3 Zrotation Xrotation Yrotation
            End Site
            {
              OFFSET 2.95144e-005 21.2823 -2.83069e-005
            }
          }
        }
      }
    }
  }
}
MOTION
Frames:	12
Frame Time:	0.04
6.55391 95.5708 -8.55107 0.0650716 -3.45958 5.91566 -0.13199 0.954713 0.166644 6.23297 -6.35636 7.41386 -0.782153 14.3313 -3.5197 -3.40911 -4.76396 -1.12935 0.553335 -9.88249 0.162471 -6.96433 -2.32424 -1.71867 0.510329 14.3922 0.30352 0.68825 -8.43563 -11.0348 -1.13316 -11.4048 0.335027 -0.431836 1.964 0.336095 -0.431837 1.96399 0.336097 -1.64392 -1.81088 -1.17808 -28.1862 7.59191 -12.2969 -52.1797 39.7378 8.73435 14.2274 2.30922 -27.3188 -4.62925 -0.465473 -0.205743 -3.18055e-015 3.18055e-015 -1.59028e-015 3.53113e-031 6.36111e-015 -3.18055e-015 33.5011 9.90204 16.2975 62.7477 45.3717 -25.0485 2.14297 -32.1036 25.5494 7.84632 -0.217434 -21.3911 -1.76556e-031 3.18055e-015 3.18055e-015 -1.59028e-015 3.18056e-015 1.59028e-015 -0.945083 0.446215 -1.39602 
6.61795 95.55 -8.6122 0.136145 -3.44588 6.0691 -0.17015 0.954715 0.102473 6.11308 -6.46644 7.6271 -0.622974 14.4251 -3.82718 -3.39669 -4.7641 -1.14841 0.555552 -9.88249 0.175389 -7.01885 -2.40977 -1.77901 0.446423 14.5649 0.526319 0.746934 -8.53515 -11.2007 -1.14558 -11.3856 0.27184 -0.505428 1.92223 0.208309 -0.505673 1.92222 0.208181 -1.64076 -1.73994 -1.01584 -28.2785 7.52101 -12.1919 -52.3108 39.5689 9.32797 14.1723 1.80021 -27.5858 -4.46095 -0.453234 -0.341445 3.18055e-015 9.54166e-015 -3.18055e-015 2.64834e-031 9.54167e-015 -1.59028e-015 33.3791 9.66325 16.044 61.6614 43.5658 -25.3588 2.11955 -30.6091 31.0881 7.03141 -0.16582 -19.3423 -7.95139e-016 -3.18055e-015 -1.59028e-015 -1.59028e-015 -9.54167e-015 -7.95139e-016 -0.838022 0.470525 -1.26208 
6.6297 95.5335 -8.71121 0.0707948 -3.39583 6.17161 -0.167362 0.936525 0.108247 6.15805 -6.70513 7.47806 -0.645129 14.6694 -3.70145 -3.37234 -4.80228 -1.2049 0.551662 -9.8825 0.15272 -6.96504 -2.50889 -3.00636 0.0816125 14.6492 1.15179 0.853575 -8.50057 -10.6827 -1.10546 -11.4047 0.294887 -0.479737 1.87321 0.219097 -0.480413 1.87322 0.219128 -1.80539 -1.66812 -0.97784 -28.1921 7.50355 -12.2909 -52.1082 39.6976 9.25735 13.9401 1.89946 -27.1273 -4.66084 -0.476598 -0.474769 -3.18055e-015 0 -3.18055e-015 -3.18055e-015 3.18056e-015 1.59028e-015 33.4054 9.53495 15.9972 60.1058 42.7067 -25.1875 1.25328 -28.1835 36.4559 5.56992 0.393964 -18.4998 -3.97569e-016 0 1.19271e-015 -1.98785e-016 0 1.3418e-015 -0.835069 0.526228 -1.27719 
6.66215 95.541 -8.77472 0.050007 -3.47466 6.20373 -0.163318 0.944262 0.159523 6.22309 -6.70273 7.3291 -0.787147 14.7111 -3.30856 -3.30774 -4.74234 -1.45362 0.542718 -9.90023 0.100428 -6.93919 -2.41795 -1.71801 0.431976 14.5128 0.382609 0.769447 -8.41238 -11.2801 -1.11706 -11.3833 0.245914 -0.4952 1.88298 0.322041 -0.497038 1.88297 0.322198 -1.764 -1.61654 -1.00957 -28.1932 7.46131 -12.3555 -51.9808 40.1313 9.11489 13.9353 2.09281 -26.4617 -5.08524 -0.478341 -0.492738 1.59028e-015 3.18055e-015 -1.59028e-015 0 3.18056e-015 -0 33.5403 9.55842 16.0805 57.06 41.6376 -23.7021 -1.03317 -24.0381 41.1973 4.5161 0.974204 -17.6493 -7.95139e-016 3.18055e-015 1.59028e-015 -8.82782e-032 3.18056e-015 1.59028e-015 -0.893219 0.557582 -1.27808 
6.67499 95.5383 -8.83076 -0.0149533 -3.51895 6.25083 -0.172704 0.956867 0.227772 6.34299 -6.80194 7.36736 -0.867716 14.8739 -3.18827 -3.24988 -4.75249 -1.65971 0.533589 -9.91531 0.0472631 -6.8645 -2.37778 -2.24973 0.291273 14.4522 0.639527 0.787811 -8.33278 -11.0938 -1.08324 -11.3928 0.237648 -0.502105 1.91273 0.45923 -0.50342 1.91272 0.459044 -1.76232 -1.81185 -1.05172 -28.2141 7.58775 -12.1539 -51.7996 40.3729 8.99445 14.168 2.69354 -25.9976 -5.43824 -0.380033 -0.726027 3.53112e-031 6.36111e-015 -3.18055e-015 5.29669e-031 9.54167e-015 -3.18055e-015 33.7527 9.84999 16.1634 53.3831 40.4342 -21.3029 -4.45333 -19.5104 45.8623 3.6417 2.00351 -16.4672 -1.59028e-015 0 -0 -0 -3.18056e-015 -0 -0.82288 0.715596 -1.33153 
6.62475 95.5378 -8.72686 -0.0230933 -4.00864 6.19436 -0.163911 1.0551 0.352642 6.5072 -6.35965 8.33594 -0.735117 14.9512 -3.89685 -3.25548 -4.83053 -2.02468 0.5283 -9.92352 0.0165347 -6.70477 -1.88977 -2.1733 0.18019 14.3664 0.638481 0.796285 -8.3487 -11.1516 -1.07507 -11.3892 0.205487 -0.488492 2.10868 0.710787 -0.487855 2.10868 0.710752 -1.9995 -1.80455 -1.05721 -28.1488 7.64113 -12.2355 -51.4762 40.402 8.94309 14.1187 2.80761 -25.665 -5.41846 -0.436478 -0.181851 -8.82781e-032 3.18055e-015 1.59028e-015 4.77083e-015 3.18056e-015 -1.59028e-015 33.9109 9.93241 16.4382 48.9287 38.0426 -17.7881 -9.67053 -13.2068 50.618 2.55311 2.58629 -14.4648 8.82781e-032 3.18055e-015 -1.59028e-015 2.64834e-031 9.54167e-015 -1.59028e-015 -0.655744 0.728361 -1.44206 
6.77223 95.5027 -8.94182 0.196576 -3.34662 6.66128 -0.22611 0.919988 0.378118 5.94099 -7.08327 7.38842 -0.50096 14.8616 -3.53177 -3.29444 -4.65012 -1.942 0.522794 -9.89939 0.070885 -7.21301 -2.62806 -3.01193 0.348409 14.8943 0.787482 0.888462 -8.59257 -10.9773 -1.14927 -11.3661 0.198004 -0.619328 1.83793 0.758874 -0.619562 1.83793 0.759591 -2.293 -1.74062 -0.944788 -27.8777 7.61477 -12.2683 -51.0072 39.5214 8.42931 13.8468 3.40694 -25.0991 -5.45154 -0.425766 -0.612431 -1.76556e-031 -3.18055e-015 -3.18055e-015 -8.82782e-032 -3.18056e-015 -1.59028e-015 33.4393 9.7256 16.5642 43.6617 34.4574 -12.1149 -14.9195 -5.91187 56.1243 0.281793 2.79921 -11.6782 -6.36111e-015 4.77083e-015 3.18055e-015 -3.18055e-015 4.77083e-015 4.77083e-015 -0.391523 0.782723 -1.476 
6.72436 95.4804 -9.11786 0.000754455 -3.39583 6.3407 -0.200308 0.918187 0.590654 6.16078 -7.31569 8.05643 -0.326953 15.2752 -3.9594 -3.30269 -4.78833 -2.11169 0.503122 -9.90054 0.0721093 -6.96004 -2.81503 -2.31281 0.385245 14.9482 0.364239 0.884983 -8.45727 -11.1519 -1.14391 -11.3645 0.17878 -0.570226 1.83342 1.18379 -0.570329 1.83342 1.18401 -2.57554 -1.8806 -0.82793 -27.6977 7.71723 -12.0387 -50.6293 39.3991 8.21312 13.8357 3.51815 -25.0525 -5.62837 -0.421574 -0.646369 1.76556e-031 6.36111e-015 -1.59028e-015 1.76556e-031 3.18056e-015 -3.18055e-015 32.9573 9.73355 16.705 39.0431 30.4053 -7.17345 -20.9311 -1.06468 63.9848 -1.6437 3.53092 -9.60769 6.36111e-015 1.2921e-015 -1.68967e-015 6.36111e-015 1.59028e-015 1.68967e-015 -0.26503 1.03676 -1.46333 
6.70136 95.4544 -9.2388 0.0209484 -2.98638 6.96135 -0.230417 0.852365 0.67578 6.04101 -7.93961 7.55923 -0.255733 15.3808 -4.14481 -3.31378 -4.68457 -2.10349 0.511781 -9.90306 0.0707973 -6.97973 -3.17292 -2.65414 0.386837 15.1688 0.191237 0.92694 -8.5978 -11.3589 -1.17814 -11.3476 0.161052 -0.635341 1.70098 1.35412 -0.634498 1.70097 1.35402 -2.6024 -2.0925 -0.810819 -27.6264 7.90181 -11.948 -50.3273 39.1502 8.0065 13.8428 3.56174 -25.1425 -5.62815 -0.435749 -0.654951 3.18055e-015 0 -3.18055e-015 4.77083e-015 6.36111e-015 -4.77083e-015 31.7349 9.73079 16.8605 34.7904 24.0244 -1.16609 -26.0422 2.95246 73.6193 -5.2006 4.59979 -8.08414 9.54166e-015 -1.59028e-015 -3.18055e-015 9.54166e-015 0 -4.77083e-015 -0.389675 1.05633 -1.42101 
6.67643 95.4412 -9.29226 -0.0520975 -2.8802 7.51134 -0.254277 0.860677 0.805258 6.0928 -8.33927 6.68623 -0.395703 15.5818 -4.09761 -3.25442 -4.67756 -1.92286 0.508072 -9.90557 0.0783135 -6.80383 -3.17059 -2.60099 0.392423 15.119 0.0302854 0.828591 -8.5977 -11.8878 -1.1142 -11.3449 0.084371 -0.672472 1.71664 1.61267 -0.674892 1.71664 1.61288 -2.55419 -2.33945 -0.821743 -27.6276 8.18084 -12.0329 -50.0146 39.0724 7.91155 14.0247 3.81416 -25.2739 -5.53196 -0.409756 -0.75677 2.64834e-031 -9.54166e-015 1.59028e-015 2.64834e-031 -9.54167e-015 1.59028e-015 29.991 9.75922 17.2573 31.8516 15.804 6.01493 -31.4365 6.03136 83.078 -8.66035 5.5987 -6.41022 -1.59028e-015 -1.59028e-015 -0 -1.59028e-015 -3.18056e-015 -0 -0.407011 1.05754 -1.41764 
6.69811 95.4344 -9.22625 0.0690083 -2.976 8.51817 -0.301041 0.940907 0.828152 5.94184 -8.45719 7.31734 -0.0510713 15.5472 -5.56856 -3.20713 -4.55034 -2.13898 0.520601 -9.90672 0.0710791 -6.86048 -2.82703 -3.22771 0.428246 15.0873 0.0871725 0.734473 -8.7501 -12.2815 -1.06388 -11.3448 0.0202093 -0.759786 1.8763 1.66189 -0.761096 1.87629 1.66172 -2.66179 -2.54512 -0.702095 -27.4292 8.44924 -12.1621 -49.7011 38.8269 7.74069 14.0516 3.70562 -25.5262 -5.28881 -0.392158 -0.749328 3.18055e-015 0 -3.18055e-015 -1.59028e-015 0 -0 27.6128 9.64233 17.9902 29.2654 11.7894 15.4022 -37.4569 4.76111 88.1945 -12.3508 7.50607 -6.22541 -4.96962e-017 2.93207e-015 -3.18055e-015 -9.93923e-016 1.54058e-015 -3.18055e-015 -0.228292 1.0126 -1.35913 
6.75688 95.4437 -9.1479 0.217806 -3.02463 8.86561 -0.341896 0.99039 0.972575 5.7452 -8.38331 7.39919 0.106236 15.3801 -5.42028 -3.27177 -4.40249 -2.74956 0.519422 -9.93843 -0.0604278 -7.00509 -2.64465 -3.36446 0.563188 15.0774 0.267495 0.539007 -8.81653 -12.7685 -0.971548 -11.3447 -0.0534328 -0.832122 1.97248 1.95282 -0.832122 1.97249 1.95282 -2.88573 -2.42229 -0.541465 -27.4068 8.44264 -12.3271 -49.2868 38.9537 7.68082 13.9855 3.49642 -25.7475 -5.33853 -0.300095 -0.474515 1.59028e-015 9.54166e-015 -1.59028e-015 1.59028e-015 9.54167e-015 -0 24.8692 9.22798 19.3302 27.6121 7.42748 25.7878 -43.7574 3.54997 89.8212 -15.7464 9.58023 -6.00063 -3.18055e-015 0 9.54166e-015 -1.59028e-015 0 1.27222e-014 -0.0456641 0.887846 -1.31006 
